<?xml version="1.0" encoding="UTF-8"?>
<svg version="1.1" xmlns="http://www.w3.org/2000/svg" width="1440" height="1440">
<path d="M0,0 L1440,0 L1440,1440 L0,1440 Z M699,6 L629,9 L657,207 L663,250 L667,248 L721,194 L728,200 L761,233 L768,241 L777,250 L779,249 L812,16 L812,12 L810,11 L738,6 Z M613,13 L541,28 L448,59 L360,103 L345,113 L325,126 L302,141 L296,145 L298,150 L312,168 L324,184 L338,202 L350,218 L364,236 L376,252 L390,270 L402,286 L416,304 L428,320 L442,338 L448,346 L513,346 L605,309 L635,279 L643,272 L651,264 L649,246 L617,18 L616,13 Z M826,14 L822,39 L791,258 L791,263 L836,308 L861,319 L906,338 L927,347 L994,347 L1008,328 L1024,307 L1034,293 L1050,272 L1064,253 L1080,232 L1094,213 L1110,192 L1124,173 L1140,152 L1144,146 L1143,143 L1099,114 L1078,100 L1036,79 L1013,68 L998,61 L943,41 L921,33 L831,14 Z M1156,154 L1142,173 L1126,194 L1112,213 L1096,234 L1083,252 L1067,273 L1053,292 L1037,313 L1023,332 L1013,345 L1013,347 L1095,347 L1094,361 L1093,409 L1093,429 L1102,423 L1115,413 L1132,400 L1149,387 L1170,371 L1187,358 L1204,345 L1225,329 L1242,316 L1259,303 L1280,287 L1286,282 L1280,275 L1271,264 L1258,250 L1249,239 L1236,225 L1229,217 L1219,208 L1208,199 L1195,187 L1184,178 L1171,166 L1160,157 Z M283,155 L272,165 L261,174 L249,185 L238,194 L225,206 L217,213 L202,229 L195,237 L184,249 L175,259 L166,269 L157,279 L155,282 L173,296 L193,311 L211,325 L228,338 L245,351 L262,364 L279,377 L296,390 L313,403 L330,416 L347,429 L349,430 L349,411 L348,346 L429,346 L425,339 L413,324 L401,308 L388,291 L372,270 L356,249 L340,228 L324,207 L311,190 L295,169 L285,156 Z M720,215 L695,240 L687,247 L649,285 L641,292 L624,309 L626,313 L664,351 L672,358 L716,402 L720,405 L724,403 L817,310 L811,303 L770,262 L762,255 L722,215 Z M145,295 L133,314 L120,335 L105,359 L97,373 L80,407 L69,430 L58,452 L33,534 L22,569 L14,614 L15,615 L260,648 L267,648 L297,618 L305,611 L310,606 L332,552 L347,515 L348,488 L348,446 L327,430 L308,416 L287,400 L271,388 L250,372 L231,358 L210,342 L191,328 L173,314 L154,300 L147,295 Z M1295,295 L1276,309 L1255,325 L1236,339 L1215,355 L1196,369 L1175,385 L1156,399 L1135,415 L1116,429 L1095,445 L1094,446 L1094,512 L1109,549 L1125,588 L1131,603 L1177,649 L1230,642 L1427,615 L1421,579 L1417,560 L1390,473 L1383,452 L1335,356 L1324,338 L1314,323 L1298,298 Z M801,347 L770,378 L762,385 L729,418 L728,452 L728,470 L740,483 L747,490 L754,498 L762,506 L769,514 L777,522 L784,530 L791,537 L794,538 L860,539 L889,539 L899,530 L909,521 L921,510 L927,505 L931,411 L931,401 L918,395 L879,379 L838,362 L802,347 Z M640,348 L570,376 L524,394 L514,398 L513,502 L550,539 L648,539 L656,531 L663,523 L684,502 L691,494 L713,472 L714,420 L648,354 Z M491,361 L363,362 L363,414 L364,498 L499,498 L499,361 Z M1070,361 L942,362 L942,418 L943,498 L1078,498 L1078,361 Z M401,512 L383,555 L364,600 L348,638 L350,642 L421,713 L473,712 L501,684 L508,676 L537,647 L540,642 L541,581 L541,549 L527,535 L519,528 L503,512 Z M938,513 L929,522 L921,529 L910,540 L902,547 L901,548 L901,570 L902,644 L918,660 L925,668 L969,712 L1021,712 L1048,685 L1056,678 L1087,647 L1094,641 L1091,632 L1073,589 L1053,541 L1042,515 L1041,513 Z M662,583 L648,598 L616,630 L609,638 L584,663 L584,776 L664,856 L713,856 L714,850 L714,583 Z M728,583 L728,855 L738,856 L778,857 L792,843 L799,835 L827,807 L834,799 L857,776 L857,662 L794,599 L787,591 L779,583 Z M311,623 L288,646 L280,653 L242,691 L234,698 L215,717 L217,721 L258,762 L266,769 L310,813 L314,812 L408,718 L402,711 L374,683 L366,676 L313,623 Z M1130,623 L1104,649 L1096,656 L1058,694 L1050,701 L1034,717 L1036,721 L1073,758 L1081,765 L1126,810 L1130,813 L1134,811 L1227,718 L1221,711 L1177,667 L1169,660 L1132,623 Z M13,627 L12,628 L6,716 L13,810 L27,809 L247,779 L253,778 L247,771 L196,720 L198,716 L215,699 L222,691 L243,670 L250,662 L251,660 L16,627 Z M1427,628 L1204,660 L1190,662 L1196,669 L1246,719 L1248,721 L1238,730 L1213,755 L1205,762 L1191,776 L1192,778 L1426,811 L1430,811 L1431,802 L1435,725 L1434,698 L1431,638 L1430,628 Z M968,726 L954,741 L918,777 L911,785 L902,794 L901,849 L901,890 L937,926 L1041,926 L1045,918 L1063,875 L1081,832 L1094,801 L1092,797 L1079,784 L1071,777 L1021,727 L988,726 Z M420,727 L348,799 L351,808 L371,856 L390,901 L401,927 L503,927 L529,901 L536,893 L540,889 L540,794 L473,727 Z M257,791 L17,824 L16,825 L17,836 L25,881 L52,968 L58,986 L74,1018 L84,1037 L110,1089 L122,1107 L141,1136 L146,1144 L151,1142 L172,1126 L184,1117 L205,1101 L224,1087 L242,1073 L261,1059 L279,1045 L298,1031 L316,1017 L335,1003 L348,993 L348,926 L329,881 L310,836 L303,828 L266,791 Z M1176,791 L1140,827 L1132,834 L1127,845 L1109,890 L1094,927 L1094,993 L1113,1007 L1134,1023 L1153,1037 L1174,1053 L1193,1067 L1214,1083 L1233,1097 L1254,1113 L1273,1127 L1292,1141 L1296,1143 L1304,1132 L1321,1106 L1334,1082 L1344,1064 L1357,1040 L1370,1017 L1379,992 L1398,937 L1413,894 L1419,868 L1427,829 L1427,825 L1401,821 L1182,791 Z M550,899 L527,922 L520,930 L514,936 L513,1000 L513,1039 L541,1051 L587,1070 L628,1087 L640,1092 L644,1090 L714,1020 L713,967 L694,948 L687,940 L647,900 Z M794,900 L782,913 L727,968 L728,1012 L729,1020 L789,1080 L797,1087 L801,1091 L806,1090 L849,1072 L896,1052 L927,1039 L928,1038 L928,968 L927,936 L891,900 Z M474,939 L363,940 L363,992 L364,1076 L499,1076 L499,939 Z M1053,939 L942,940 L942,996 L943,1076 L1078,1076 L1078,939 Z M1093,1010 L1094,1093 L1012,1093 L1018,1101 L1027,1113 L1040,1130 L1053,1147 L1063,1160 L1076,1177 L1086,1190 L1099,1207 L1112,1224 L1122,1237 L1135,1254 L1145,1267 L1158,1284 L1162,1282 L1175,1270 L1187,1259 L1197,1250 L1210,1238 L1222,1227 L1227,1223 L1234,1215 L1246,1202 L1257,1190 L1268,1178 L1277,1168 L1286,1158 L1284,1154 L1264,1139 L1246,1125 L1230,1113 L1213,1100 L1192,1084 L1171,1068 L1150,1052 L1130,1037 L1112,1023 L1096,1011 Z M346,1013 L325,1029 L306,1043 L287,1057 L266,1073 L252,1083 L231,1099 L213,1112 L192,1128 L174,1141 L155,1155 L161,1162 L170,1173 L182,1186 L191,1197 L203,1210 L212,1221 L225,1233 L236,1242 L250,1255 L261,1264 L275,1277 L283,1284 L288,1279 L299,1265 L312,1248 L325,1231 L338,1214 L351,1197 L364,1180 L377,1163 L390,1146 L403,1129 L416,1112 L429,1095 L430,1092 L392,1092 L347,1093 L348,1087 L348,1013 Z M720,1034 L678,1076 L670,1083 L632,1121 L624,1128 L624,1131 L631,1138 L639,1145 L683,1189 L691,1196 L720,1225 L724,1223 L817,1130 L811,1123 L722,1034 Z M448,1092 L439,1103 L425,1122 L411,1140 L397,1159 L383,1177 L369,1196 L355,1214 L343,1230 L327,1251 L315,1267 L299,1288 L296,1292 L296,1295 L313,1306 L348,1329 L371,1341 L449,1380 L554,1415 L612,1426 L615,1426 L618,1409 L650,1176 L648,1172 L606,1130 L568,1114 L531,1099 L514,1092 Z M927,1093 L890,1108 L852,1124 L835,1131 L800,1166 L793,1174 L792,1175 L793,1188 L825,1424 L826,1426 L838,1424 L920,1406 L963,1391 L1004,1376 L1032,1362 L1055,1351 L1076,1340 L1091,1330 L1110,1318 L1127,1307 L1146,1295 L1140,1286 L1126,1268 L1114,1252 L1098,1231 L1084,1212 L1070,1194 L1056,1175 L1040,1154 L1024,1133 L1010,1114 L997,1097 L994,1093 Z M664,1190 L663,1191 L629,1427 L629,1428 L718,1434 L730,1434 L810,1429 L812,1428 L810,1410 L779,1191 L776,1191 L756,1211 L748,1218 L722,1244 L715,1238 L699,1223 L684,1208 L676,1201 L665,1190 Z " fill="#000000" transform="translate(0,0)"/>
<path d="M0,0 L66,0 L112,19 L156,37 L164,44 L202,82 L197,121 L168,331 L167,334 L153,332 L106,323 L1,288 L-97,239 L-135,214 L-152,203 L-151,199 L-135,178 L-120,158 L-104,137 L-88,116 L-79,104 L-63,83 L-51,67 L-35,46 L-23,30 L-7,9 Z " fill="#000066" transform="translate(448,1092)"/>
<path d="M0,0 L3,0 L10,48 L38,247 L37,252 L24,265 L16,272 L-8,296 L-100,333 L-165,333 L-179,315 L-192,298 L-205,281 L-218,264 L-231,247 L-244,230 L-257,213 L-270,196 L-283,179 L-296,162 L-309,145 L-317,134 L-316,131 L-300,121 L-285,111 L-265,98 L-249,88 L-165,46 L-72,15 L-9,2 Z " fill="#000066" transform="translate(613,13)"/>
<path d="M0,0 L10,1 L95,19 L145,37 L179,50 L207,64 L230,75 L254,87 L297,116 L318,130 L316,135 L300,156 L286,175 L270,196 L256,215 L240,236 L226,255 L210,276 L197,294 L181,315 L168,333 L101,333 L66,318 L21,299 L9,293 L-35,249 L-34,237 L-1,4 Z " fill="#000066" transform="translate(826,14)"/>
<path d="M0,0 L67,0 L81,18 L95,37 L111,58 L126,78 L142,99 L154,115 L170,136 L184,155 L194,168 L210,189 L219,201 L214,205 L189,221 L172,232 L150,246 L136,254 L108,268 L85,279 L72,285 L10,307 L-7,313 L-98,333 L-101,333 L-103,324 L-135,88 L-135,82 L-128,75 L-121,67 L-92,38 L-56,23 L-15,6 Z " fill="#000066" transform="translate(927,1093)"/>
<path d="M0,0 L5,2 L26,18 L42,30 L63,46 L82,60 L103,76 L122,90 L140,104 L159,118 L180,134 L199,148 L203,151 L203,193 L202,220 L180,274 L165,311 L154,322 L146,329 L122,353 L108,352 L-130,320 L-131,318 L-123,274 L-96,187 L-87,157 L-66,115 L-55,92 L-44,70 L-30,48 L-14,22 L-2,3 Z " fill="#000066" transform="translate(145,295)"/>
<path d="M0,0 L9,0 L52,43 L65,73 L83,116 L91,135 L91,202 L73,216 L54,230 L36,244 L17,258 L-1,272 L-20,286 L-33,296 L-54,312 L-73,326 L-91,340 L-109,353 L-111,353 L-123,334 L-135,316 L-148,296 L-182,228 L-192,209 L-201,190 L-228,103 L-233,85 L-241,39 L-241,34 L-240,33 Z " fill="#000066" transform="translate(257,791)"/>
<path d="M0,0 L4,5 L21,31 L34,51 L44,69 L89,159 L106,213 L123,268 L132,318 L132,320 L-116,354 L-120,352 L-164,308 L-179,271 L-195,232 L-201,217 L-201,151 L-190,142 L-171,128 L-150,112 L-131,98 L-110,82 L-91,68 L-70,52 L-51,38 L-30,22 L-11,8 Z " fill="#000066" transform="translate(1295,295)"/>
<path d="M0,0 L13,1 L247,33 L251,34 L250,43 L238,100 L223,144 L208,187 L195,224 L182,248 L169,271 L159,290 L146,313 L136,329 L121,351 L119,352 L101,339 L80,323 L61,309 L40,293 L21,279 L0,263 L-19,249 L-40,233 L-59,219 L-80,203 L-82,202 L-82,136 L-67,99 L-45,44 L-38,37 L-30,30 Z " fill="#000066" transform="translate(1176,791)"/>
<path d="M0,0 L24,3 L238,33 L232,40 L223,50 L203,70 L196,78 L183,91 L185,95 L240,150 L240,151 L139,165 L7,183 L0,183 L-7,89 L-1,1 Z " fill="#000066" transform="translate(13,627)"/>
<path d="M0,0 L39,0 L111,5 L113,6 L111,24 L80,243 L77,243 L63,229 L56,221 L23,188 L16,194 L-34,244 L-36,244 L-70,4 L-70,3 Z " fill="#000066" transform="translate(699,6)"/>
<path d="M0,0 L7,6 L18,17 L26,24 L44,42 L52,49 L58,54 L90,22 L98,15 L113,0 L115,1 L148,234 L148,238 L146,239 L66,244 L54,244 L-35,238 L-10,63 L-1,1 Z " fill="#000066" transform="translate(664,1190)"/>
<path d="M0,0 L3,0 L5,30 L8,90 L7,116 L4,174 L3,183 L-15,181 L-235,150 L-235,147 L-216,128 L-208,121 L-182,95 L-179,92 L-187,85 L-237,35 L-237,34 L-13,2 Z " fill="#000066" transform="translate(1427,628)"/>
<path d="M0,0 L8,6 L21,18 L32,27 L45,39 L56,48 L69,60 L77,67 L86,77 L93,85 L105,99 L116,111 L125,122 L130,128 L118,138 L102,150 L85,163 L68,176 L47,192 L30,205 L13,218 L-8,234 L-25,247 L-42,260 L-62,275 L-63,275 L-63,255 L-62,207 L-61,193 L-143,193 L-141,189 L-127,170 L-111,149 L-97,130 L-81,109 L-68,91 L-52,70 L-38,51 L-22,30 L-8,11 Z " fill="#000066" transform="translate(1156,154)"/>
<path d="M0,0 L5,5 L17,20 L29,36 L42,53 L58,74 L74,95 L90,116 L106,137 L119,154 L135,175 L146,190 L146,191 L65,191 L66,256 L66,275 L58,269 L46,260 L29,247 L12,234 L-5,221 L-22,208 L-39,195 L-56,182 L-73,169 L-90,156 L-107,143 L-124,130 L-128,126 L-119,117 L-112,109 L-101,97 L-94,89 L-82,76 L-75,68 L-64,56 L-52,45 L-41,36 L-29,25 L-18,16 L-5,4 Z " fill="#000066" transform="translate(283,155)"/>
<path d="M0,0 L4,2 L20,14 L33,24 L54,40 L75,56 L95,71 L113,85 L129,97 L146,110 L167,126 L188,142 L193,146 L191,150 L179,163 L168,175 L159,185 L147,198 L136,210 L132,215 L124,222 L111,234 L99,245 L87,256 L77,265 L67,274 L63,272 L51,256 L41,243 L28,226 L18,213 L5,196 L-8,179 L-18,166 L-31,149 L-41,136 L-54,119 L-67,102 L-77,89 L-81,83 L1,83 Z " fill="#000066" transform="translate(1093,1010)"/>
<path d="M0,0 L2,0 L2,74 L1,80 L46,79 L84,79 L82,83 L69,100 L56,117 L43,134 L30,151 L17,168 L4,185 L-9,202 L-22,219 L-35,236 L-48,253 L-61,270 L-64,270 L-77,258 L-85,251 L-99,239 L-111,228 L-122,219 L-135,207 L-144,196 L-156,183 L-165,172 L-177,159 L-186,148 L-191,142 L-172,128 L-153,114 L-132,98 L-118,88 L-97,72 L-79,59 L-58,43 L-39,29 L-20,15 Z " fill="#000066" transform="translate(346,1013)"/>
<path d="M0,0 L97,1 L143,47 L150,55 L163,68 L164,121 L92,193 L83,190 L37,171 L-4,154 L-37,140 L-37,101 L-36,37 L-24,25 L-17,17 Z " fill="#000066" transform="translate(550,899)"/>
<path d="M0,0 L25,10 L61,25 L107,44 L129,53 L130,54 L129,88 L126,158 L112,171 L104,178 L91,190 L88,192 L59,192 L-7,191 L-12,188 L-23,177 L-30,169 L-38,161 L-45,153 L-53,145 L-60,137 L-69,128 L-73,123 L-73,105 L-72,71 L-33,32 L-25,25 Z " fill="#000066" transform="translate(801,347)"/>
<path d="M0,0 L20,0 L53,1 L109,57 L117,64 L126,73 L123,82 L105,125 L87,168 L74,199 L73,200 L-31,200 L-67,164 L-67,123 L-66,68 L-51,53 L-44,45 L-5,6 Z " fill="#000066" transform="translate(968,726)"/>
<path d="M0,0 L102,0 L124,22 L132,29 L140,37 L140,69 L139,130 L133,138 L101,170 L94,178 L72,200 L20,201 L-53,128 L-50,119 L-31,74 L-12,29 Z " fill="#000066" transform="translate(401,512)"/>
<path d="M0,0 L8,6 L74,72 L73,124 L45,152 L38,160 L17,181 L10,189 L8,191 L-90,191 L-127,154 L-126,50 L-88,35 L-20,8 Z " fill="#000066" transform="translate(640,348)"/>
<path d="M0,0 L52,0 L119,67 L119,162 L109,172 L102,180 L82,200 L-20,200 L-38,158 L-50,129 L-68,86 L-73,73 Z " fill="#000066" transform="translate(421,727)"/>
<path d="M0,0 L103,0 L113,23 L130,64 L150,112 L156,126 L154,130 L141,142 L112,171 L104,178 L83,199 L31,199 L-19,149 L-26,141 L-36,131 L-37,57 L-37,35 L-30,28 L-22,21 L-11,10 L-3,3 Z " fill="#000066" transform="translate(938,513)"/>
<path d="M0,0 L97,0 L133,36 L134,68 L134,138 L124,143 L88,158 L48,175 L10,191 L6,190 L-3,181 L-11,174 L-65,120 L-66,112 L-67,68 L-4,5 Z " fill="#000066" transform="translate(794,900)"/>
<path d="M0,0 L52,0 L52,267 L51,273 L2,273 L-78,193 L-78,80 L-47,49 L-40,41 L-5,6 Z " fill="#000066" transform="translate(662,583)"/>
<path d="M0,0 L51,0 L65,14 L72,22 L129,79 L129,193 L100,222 L93,230 L65,258 L58,266 L50,274 L10,273 L0,272 Z " fill="#000066" transform="translate(728,583)"/>
<path d="M0,0 L4,2 L97,95 L91,102 L2,191 L-2,189 L-35,156 L-43,149 L-87,105 L-95,98 L-97,95 L-90,88 L-82,81 L-44,43 L-36,36 Z " fill="#000066" transform="translate(720,1034)"/>
<path d="M0,0 L4,2 L45,43 L53,50 L97,94 L91,101 L2,190 L-2,188 L-10,181 L-55,136 L-63,129 L-96,96 L-94,92 L-74,72 L-66,65 L-28,27 L-20,20 Z " fill="#000066" transform="translate(1130,623)"/>
<path d="M0,0 L4,2 L48,46 L56,53 L97,94 L91,101 L2,190 L-2,188 L-10,181 L-54,137 L-62,130 L-96,96 L-94,92 L-73,71 L-65,64 L-27,26 L-19,19 Z " fill="#000066" transform="translate(720,215)"/>
<path d="M0,0 L4,2 L61,59 L69,66 L97,94 L91,101 L2,190 L-2,189 L-51,140 L-59,133 L-96,96 L-94,92 L-71,69 L-63,62 L-25,24 L-17,17 Z " fill="#000066" transform="translate(311,623)"/>
<path d="M0,0 L25,0 L25,137 L-110,137 L-111,57 L-111,1 Z " fill="#000066" transform="translate(1053,939)"/>
<path d="M0,0 L25,0 L25,137 L-110,137 L-111,53 L-111,1 Z " fill="#000066" transform="translate(474,939)"/>
<path d="M0,0 L8,0 L8,137 L-127,137 L-128,57 L-128,1 Z " fill="#000066" transform="translate(1070,361)"/>
<path d="M0,0 L8,0 L8,137 L-127,137 L-128,53 L-128,1 Z " fill="#000066" transform="translate(491,361)"/>
<path d="M0,0 Z M-1,1 Z M-2,2 Z M-3,3 Z M-4,4 Z M-5,5 Z M-6,6 Z M-7,7 Z M-8,8 Z M-9,9 Z M-10,10 Z M-11,11 Z M-12,12 Z M-13,13 Z M-14,14 Z M-15,15 Z M-16,16 Z M-17,17 Z M-18,18 Z M-19,19 Z M-20,20 Z M-21,21 Z M-22,22 Z M-23,23 Z M-24,24 Z M-25,25 Z M-26,26 Z M-27,27 Z M-28,28 Z M-29,29 Z M-30,30 Z M-31,31 Z M-32,32 Z M-33,33 Z M-34,34 Z M-35,35 Z M-36,36 Z M-37,37 Z M-38,38 Z M-39,39 Z M-40,40 Z M-41,41 Z M-42,42 Z M-43,43 Z M-44,44 Z M-45,45 Z M-46,46 Z M-47,47 Z M-48,48 Z M-49,49 Z M-50,50 Z M-51,51 Z M-52,52 Z M-53,53 Z M-54,54 Z M-55,55 Z M-56,56 Z M-57,57 Z M-58,58 Z M-59,59 Z M-60,60 Z M-61,61 Z M-62,62 Z M-63,63 Z M-64,64 Z M-65,65 Z M-66,66 Z M-67,67 Z M-68,68 Z M-69,69 Z M-70,70 Z M-71,71 Z M-72,72 Z " fill="#000066" transform="translate(420,727)"/>
</svg>
